<?xml version="1.0" encoding="UTF-8" standalone="no"?>
<!-- Created with Inkscape (http://www.inkscape.org/) -->

<svg
   version="1.1"
   id="svg1"
   width="640"
   height="270"
   viewBox="0 0 640 270"
   sodipodi:docname="swan_00053_.svg"
   xml:space="preserve"
   inkscape:export-filename="swan_00053_.png"
   inkscape:export-xdpi="96"
   inkscape:export-ydpi="96"
   inkscape:version="1.4.3 (0d15f75042, 2025-12-25)"
   xmlns:inkscape="http://www.inkscape.org/namespaces/inkscape"
   xmlns:sodipodi="http://sodipodi.sourceforge.net/DTD/sodipodi-0.dtd"
   xmlns="http://www.w3.org/2000/svg"
   xmlns:svg="http://www.w3.org/2000/svg"><defs
     id="defs1"><rect
       x="5.3938708"
       y="164.21339"
       width="272.09082"
       height="95.291718"
       id="rect43" /><rect
       x="98.288307"
       y="177.99773"
       width="178.59705"
       height="77.911461"
       id="rect42" /><clipPath
       clipPathUnits="userSpaceOnUse"
       id="clipPath2"><ellipse
         style="fill:#000000"
         id="ellipse2"
         cx="140.5403"
         cy="131.55051"
         rx="123.16004"
         ry="119.86379" /></clipPath><clipPath
       clipPathUnits="userSpaceOnUse"
       id="clipPath5"><path
         style="fill:#000000"
         id="path6"
         sodipodi:type="arc"
         sodipodi:cx="-183.99092"
         sodipodi:cy="250.81499"
         sodipodi:rx="112.67197"
         sodipodi:ry="74.015892"
         sodipodi:start="0"
         sodipodi:end="3.9992233"
         sodipodi:open="true"
         sodipodi:arc-type="arc"
         d="m -71.318954,250.81499 a 112.67197,74.015892 0 0 1 -86.138936,71.93434 112.67197,74.015892 0 0 1 -126.70851,-38.05482 112.67197,74.015892 0 0 1 26.46196,-89.85734" /></clipPath><clipPath
       clipPathUnits="userSpaceOnUse"
       id="clipPath8"><ellipse
         style="fill:#000000"
         id="ellipse8"
         cx="-214.55618"
         cy="267.89557"
         rx="80.908058"
         ry="64.726448" /></clipPath><clipPath
       clipPathUnits="userSpaceOnUse"
       id="clipPath9"><ellipse
         style="fill:#000000"
         id="ellipse9"
         cx="-178.89671"
         cy="258.60611"
         rx="110.57435"
         ry="60.231556" /></clipPath><filter
       inkscape:label="Black Light"
       inkscape:menu="Color"
       inkscape:menu-tooltip="Light areas turn to black"
       style="color-interpolation-filters:sRGB"
       id="filter10"
       x="0"
       y="0"
       width="1"
       height="1"><feColorMatrix
         type="luminanceToAlpha"
         result="result2"
         id="feColorMatrix9" /><feComposite
         in2="SourceGraphic"
         operator="arithmetic"
         in="result2"
         k3="2"
         result="result4"
         id="feComposite9"
         k1="0"
         k2="0"
         k4="0" /><feBlend
         in="result4"
         mode="multiply"
         result="result3"
         in2="result2"
         id="feBlend9" /><feComposite
         in2="SourceGraphic"
         operator="in"
         in="result3"
         id="feComposite10" /></filter><clipPath
       clipPathUnits="userSpaceOnUse"
       id="clipPath37"><path
         id="path38"
         clip-path="url(#clipPath2)"
         style="fill:#252525;fill-opacity:0.84988"
         d="m 175.15625,45.53125 c -0.68139,0.01403 -0.84592,0.212219 -0.31445,0.642578 2.36064,1.911529 2.36234,1.912104 -3.69922,1.91211 -9.86032,0 -17.90298,2.097328 -12.41016,3.236328 5.25487,1.089661 5.28083,1.665447 0.21485,4.558593 -22.93353,13.097193 -18.53756,43.975808 11.0664,77.750001 29.51697,33.67495 42.23146,53.85454 23.00354,77.86453 -1.1754,1.46773 -3.77076,4.23166 -8.01866,7.1128 -5.18637,3.51766 -9.27769,6.00366 -16.66815,7.80988 -7.20002,1.75968 -14.76522,3.43043 -21.52701,4.24036 -6.38805,0.76516 -25.58954,1.6001 -29.10995,1.83505 -4.14039,0.27633 7.92557,0.69765 11.91725,0.77978 8.25008,0.16976 16.66161,0.6411 30.66179,-0.51013 40.70766,-3.34739 61.70994,-21.95231 61.70994,-35.21433 0,-3.3529 2.00598,-1.14728 2.08008,2.28711 0.13507,6.2575 3.64707,-2.66963 4.45898,-11.33399 1.87771,-20.03789 -6.21526,-33.29963 -35.01367,-57.37695 -34.92345,-29.19824 -42.87238,-49.137392 -25.26172,-63.371094 9.15028,-7.395649 28.07056,-1.281739 23.95899,7.742188 -3.38126,7.421039 -2.43162,14.013942 3.01172,20.886718 2.98743,3.771938 3.21414,4.644138 3.80664,14.693358 0.66319,11.24824 6.65584,28.95887 6.87695,20.32422 0.16208,-6.32943 -0.2084,-18.21785 2.65055,-25.47548 1.48597,-3.77221 5.0231,-5.5663 6.44461,-7.066637 12.03121,-12.698317 6.53225,-35.083209 -11.76508,-45.041867 -5.64034,-3.06986 -24.3947,-8.360916 -28.07422,-8.285156 z"
         sodipodi:nodetypes="sssssssssssssssssssssssssss"
         transform="translate(-3.5959137,-7.7911464)" /></clipPath><filter
       id="mask-powermask-path-effect51_inverse"
       inkscape:label="filtermask-powermask-path-effect51"
       style="color-interpolation-filters:sRGB"
       height="100"
       width="100"
       x="-50"
       y="-50"><feColorMatrix
         id="mask-powermask-path-effect51_primitive1"
         values="1"
         type="saturate"
         result="fbSourceGraphic" /><feColorMatrix
         id="mask-powermask-path-effect51_primitive2"
         values="-1 0 0 0 1 0 -1 0 0 1 0 0 -1 0 1 0 0 0 1 0 "
         in="fbSourceGraphic" /></filter></defs><sodipodi:namedview
     id="namedview1"
     pagecolor="#ffffff"
     bordercolor="#000000"
     borderopacity="0.25"
     inkscape:showpageshadow="2"
     inkscape:pageopacity="0.0"
     inkscape:pagecheckerboard="0"
     inkscape:deskcolor="#d1d1d1"
     inkscape:zoom="1"
     inkscape:cx="219"
     inkscape:cy="-11.5"
     inkscape:window-width="1853"
     inkscape:window-height="1131"
     inkscape:window-x="0"
     inkscape:window-y="0"
     inkscape:window-maximized="1"
     inkscape:current-layer="g1" /><g
     inkscape:groupmode="layer"
     inkscape:label="Image"
     id="g1"
     inkscape:export-filename="SwanKitLogo.png"
     inkscape:export-xdpi="96"
     inkscape:export-ydpi="96"><text
       xml:space="preserve"
       id="text42"
       style="font-style:normal;font-variant:normal;font-weight:normal;font-stretch:normal;font-size:42.6667px;font-family:'Inter Variable';-inkscape-font-specification:'Inter Variable, @opsz=32,wght=700';font-variant-ligatures:normal;font-variant-caps:normal;font-variant-numeric:proportional-nums;font-variant-east-asian:normal;font-variation-settings:'opsz' 32, 'wght' 700;writing-mode:lr-tb;direction:ltr;white-space:pre;shape-inside:url(#rect43);display:inline;fill:#242424;fill-opacity:0.85098;stroke:none;stroke-width:4.5;stroke-dasharray:none;stroke-opacity:0.75384"
       transform="matrix(2.7187334,0,0,2.7187334,228.5166,-322.84508)"><tspan
         x="5.3945312"
         y="203.70714"
         id="tspan1">wanKit
</tspan></text><g
       inkscape:groupmode="layer"
       id="layer1"
       inkscape:label="swan"
       transform="translate(7,13)"><path
         id="neck"
         clip-path="url(#clipPath2)"
         style="fill:#252525;fill-opacity:0.84988"
         d="m 175.15646,45.531381 c -0.68139,0.01403 -0.84592,0.212219 -0.31445,0.642578 2.36064,1.911529 2.36234,1.912103 -3.69922,1.912109 -9.86032,0 -17.90298,2.097328 -12.41016,3.236328 5.25487,1.089661 5.28083,1.665448 0.21485,4.558594 -22.93353,13.097193 -18.53756,43.975807 11.0664,77.75 29.51697,33.67495 42.23183,53.85524 23.00391,77.86523 -1.1754,1.46773 -3.77163,4.23019 -8.01953,7.11133 -5.18637,3.51766 -9.27751,6.00433 -16.66797,7.81055 -7.20002,1.75968 -14.76556,3.4303 -21.52735,4.24023 -6.38805,0.76516 -25.58896,1.60099 -29.10937,1.83594 -4.14039,0.27633 7.92629,0.69717 11.91797,0.7793 8.25008,0.16976 16.65997,0.64146 30.66015,-0.50977 40.70766,-3.34739 61.71094,-21.95282 61.71094,-35.21484 0,-3.3529 2.00598,-1.14728 2.08008,2.28711 0.13507,6.2575 3.64707,-2.66963 4.45898,-11.33399 1.87771,-20.03789 -6.21526,-33.29963 -35.01367,-57.37695 -34.92345,-29.19824 -42.87238,-49.137391 -25.26172,-63.371093 9.15028,-7.395649 28.07056,-1.281739 23.95899,7.742188 -3.38126,7.421039 -2.43162,14.013942 3.01172,20.886718 2.15426,2.719976 2.87263,3.931327 3.32812,8.164067 a 14.383655,17.043133 0 0 1 7.43164,-2.58594 l 2.85157,3.33398 c 1.60989,-3.346 4.82822,-5.02346 6.16796,-6.437497 12.03121,-12.698317 6.53171,-35.082358 -11.76562,-45.041016 -5.64034,-3.06986 -24.3947,-8.360916 -28.07422,-8.285156 z"
         transform="translate(-3.5959137,-7.7911464)" /><path
         style="fill:#404040;fill-opacity:0.795228;stroke-width:1.52465;filter:url(#filter10)"
         d="m 136.73333,219.70181 c -20.76241,1.73115 -38.72261,0.001 -54.350384,-5.23449 -2.847857,-0.95415 -2.847857,-0.95415 0.914971,-2.07628 7.346356,-2.19079 6.971625,-2.59442 -6.556947,-7.06263 -14.625532,-4.83052 -22.392121,-9.0543 -26.842883,-14.59829 -2.223239,-2.76933 -2.18549,-2.78389 2.194801,-0.84741 13.344147,5.89933 24.04131,6.98911 12.945985,1.31889 -18.90997,-9.66387 -32.874218,-24.686 -34.440727,-37.04987 -0.01529,-0.12068 0.535377,0.29092 1.223692,0.91448 9.623994,12.58804 22.858745,18.42336 27.860118,20.11386 6.20986,2.09898 11.785354,2.90593 11.566784,1.18085 -0.09444,-0.7454 -0.652312,-1.28028 -2.813044,-2.69715 -11.302617,-7.41148 -17.250103,-14.42839 -22.412809,-21.61607 -5.445308,-7.58112 -9.82691,-15.49521 -11.139232,-29.93184 -1.062169,-11.68474 2.407761,-29.567754 8.544623,-36.909122 2.449415,-2.930176 2.524819,-2.921431 1.306798,0.151697 -8.268054,20.860595 2.983335,54.879805 30.256496,70.076175 0,0 13.509898,7.06042 15.034358,6.24954 0.845676,-0.44983 0.396464,-1.08084 -3.997241,-5.61494 C 75.410148,145.1114 70.195571,136.87933 67.11686,126.21379 c -1.700459,-5.8909 -1.621718,-6.81355 0.35558,-4.16658 9.96238,13.33642 26.57441,26.58381 46.43582,32.24299 5.43114,1.54751 14.34528,3.35319 26.79766,4.26645 20.06356,1.47146 24.70198,2.09452 31.02935,4.16808 16.36341,5.36251 23.40511,16.60079 18.63772,29.74504 -5.55361,15.31193 -24.19754,24.77718 -53.63966,27.23204 z"
         id="wing"
         sodipodi:nodetypes="sssssssscsscssscsssscsssss" /><path
         style="fill:#ffffff;fill-opacity:1;stroke:#f18c2f;stroke-width:0.238378;stroke-dasharray:none;stroke-opacity:0.75384"
         d="m 198.40967,84.312283 c -0.49463,-0.159917 -0.75269,-0.323363 -1.17133,-0.741871 -0.3261,-0.325996 -0.45021,-0.499813 -0.6489,-0.908751 -0.37145,-0.764508 -0.47346,-1.303066 -0.44104,-2.328391 0.0301,-0.950386 0.0941,-1.232953 0.44432,-1.959994 0.19687,-0.408714 0.31814,-0.578985 0.64562,-0.906479 0.22177,-0.221781 0.52241,-0.46346 0.66809,-0.537064 0.32906,-0.166261 0.78662,-0.30456 1.00764,-0.30456 h 0.16734 l 0.0349,1.200449 c 0.0192,0.660247 0.0349,1.411137 0.0349,1.668644 v 0.468194 h -0.1775 c -0.0976,0 -0.25853,0.02766 -0.35757,0.06146 -0.23462,0.08008 -0.73628,0.398686 -0.73628,0.467608 0,0.03333 0.25062,0.05363 0.66216,0.05363 h 0.66216 v 0.271604 0.271604 l 0.2548,-0.02448 c 0.31297,-0.03007 0.71426,-0.222472 0.94749,-0.454275 0.0962,-0.09566 0.175,-0.149295 0.175,-0.119188 0,0.03531 0.29135,0.05474 0.82108,0.05474 h 0.82108 l -0.001,0.33108 c -0.002,0.515427 -0.18214,1.220835 -0.45653,1.785585 -0.19855,0.408648 -0.32285,0.582741 -0.64882,0.908727 -0.60949,0.609516 -1.15765,0.843825 -1.96229,0.838774 -0.28316,-0.0018 -0.5635,-0.03828 -0.74525,-0.09704 z"
         id="eye" /><path
         style="fill:#f0780e;fill-opacity:0.752941;stroke:none;stroke-width:4.5;stroke-dasharray:none;stroke-opacity:0.75384"
         id="beak"
         sodipodi:type="arc"
         sodipodi:cx="202.56981"
         sodipodi:cy="111.21112"
         sodipodi:rx="14.383655"
         sodipodi:ry="17.043133"
         sodipodi:start="0"
         sodipodi:end="4.6992319"
         sodipodi:arc-type="arc"
         d="m 216.95346,111.21112 a 14.383655,17.043133 0 0 1 -14.32057,17.04297 14.383655,17.043133 0 0 1 -14.44618,-16.89348 14.383655,17.043133 0 0 1 14.19386,-17.191147"
         clip-path="url(#clipPath37)"
         transform="matrix(1,0,0,0.81661052,0,17.799416)"
         sodipodi:open="true" /></g><path
       id="path32"
       style="fill:none;stroke:#f18c2f;stroke-width:5;stroke-dasharray:none;stroke-opacity:0.75384"
       d="m 618.48386,256.78836 c -65.50787,0 -429.98688,0.002 -472.03632,0.002 -43.55357,0 -56.212111,-4.50973 -67.434033,-9.06949 -11.51441,-4.6786 -28.75398,-18.77624 -34.616652,-26.16484 C 18.267776,188.62611 10.086125,143.58916 24.895438,101.71015 45.129504,44.490572 103.42617,9.9642759 163.32829,19.723074 223.2304,29.481872 267.55396,80.72627 268.58021,141.40942"
       sodipodi:nodetypes="csssssc" /></g></svg>
